G04 #@! TF.FileFunction,Copper,L2,Bot,Signal*
%FSLAX46Y46*%
G04 Gerber Fmt 4.6, Leading zero omitted, Abs format (unit mm)*
G04 Created by KiCad (PCBNEW 4.0.6) date Thursday, 31 December 2020 'PMt' 14:58:43*
%MOMM*%
%LPD*%
G01*
G04 APERTURE LIST*
%ADD10C,0.100000*%
%ADD11R,1.400000X1.400000*%
%ADD12C,1.400000*%
%ADD13O,2.300000X1.600000*%
%ADD14C,1.998980*%
%ADD15O,2.000000X3.500000*%
%ADD16R,1.700000X1.700000*%
%ADD17O,1.700000X1.700000*%
%ADD18O,2.500000X1.500000*%
%ADD19C,3.000000*%
%ADD20C,0.600000*%
%ADD21C,1.000000*%
G04 APERTURE END LIST*
D10*
D11*
X40725000Y51075000D03*
D12*
X40725000Y46075000D03*
D11*
X21775000Y36100000D03*
D12*
X21775000Y41100000D03*
D13*
X33950000Y41175000D03*
X33950000Y43715000D03*
X33950000Y46255000D03*
X33950000Y48795000D03*
X26330000Y48795000D03*
X26330000Y46255000D03*
X26330000Y43715000D03*
X26330000Y41175000D03*
D14*
X21725000Y51275000D03*
X21725000Y43655000D03*
D15*
X24646100Y32771400D03*
X24646100Y8771400D03*
X27186100Y32771400D03*
X27186100Y8771400D03*
X29726100Y32771400D03*
X29726100Y8771400D03*
X32266100Y32771400D03*
X32266100Y8771400D03*
X34806100Y32771400D03*
X34806100Y8771400D03*
X37346100Y32771400D03*
X37346100Y8771400D03*
X39886100Y32771400D03*
X39886100Y8771400D03*
X42426100Y32771400D03*
X42426100Y8771400D03*
X44966100Y32771400D03*
X44966100Y8771400D03*
X47506100Y32771400D03*
X47506100Y8771400D03*
X50046100Y32771400D03*
X50046100Y8771400D03*
X52586100Y32771400D03*
X52586100Y8771400D03*
X55126100Y32771400D03*
X55126100Y8771400D03*
X57666100Y32771400D03*
X57666100Y8771400D03*
X60206100Y32771400D03*
X60206100Y8771400D03*
D16*
X17150000Y41000000D03*
D17*
X17150000Y43540000D03*
X17150000Y46080000D03*
X17150000Y48620000D03*
D18*
X48775000Y50075000D03*
X48775000Y48075000D03*
X48775000Y46075000D03*
X48775000Y44075000D03*
X48775000Y42075000D03*
X48775000Y40075000D03*
D19*
X17855000Y11065000D03*
X17855000Y31385000D03*
X7695000Y11065000D03*
X7775000Y31225000D03*
D20*
X32125000Y36425000D03*
X38200000Y36650000D03*
D21*
X48600000Y50000000D02*
X41725000Y50000000D01*
X49700000Y50000000D02*
X48600000Y50000000D01*
X56250000Y43450000D02*
X49700000Y50000000D01*
X56250000Y38275000D02*
X56250000Y43450000D01*
X60206100Y34318900D02*
X56250000Y38275000D01*
X41725000Y50000000D02*
X40725000Y51000000D01*
X40725000Y51000000D02*
X40725000Y51075000D01*
X60206100Y32771400D02*
X60206100Y34318900D01*
X26330000Y48795000D02*
X27445000Y48795000D01*
X27445000Y48795000D02*
X30875000Y52225000D01*
X30875000Y52225000D02*
X39575000Y52225000D01*
X39575000Y52225000D02*
X40725000Y51075000D01*
X7695000Y11065000D02*
X7695000Y10705000D01*
X7695000Y10705000D02*
X13150000Y5250000D01*
X55975000Y5250000D02*
X23300000Y5250000D01*
X57666100Y6941100D02*
X55975000Y5250000D01*
X57666100Y8771400D02*
X57666100Y6941100D01*
X13150000Y5250000D02*
X23300000Y5250000D01*
X7775000Y31225000D02*
X7775000Y11145000D01*
X7775000Y11145000D02*
X7695000Y11065000D01*
X17150000Y43540000D02*
X14765000Y43540000D01*
X7775000Y36550000D02*
X7775000Y31225000D01*
X14765000Y43540000D02*
X7775000Y36550000D01*
X21775000Y41100000D02*
X20900000Y41100000D01*
X18460000Y43540000D02*
X17150000Y43540000D01*
X20900000Y41100000D02*
X18460000Y43540000D01*
X48825000Y40100000D02*
X48825000Y41950000D01*
X55425000Y36600000D02*
X52325000Y36600000D01*
X52325000Y36600000D02*
X48825000Y40100000D01*
X57666100Y34358900D02*
X55425000Y36600000D01*
X48775000Y42000000D02*
X48775000Y42125000D01*
X48825000Y41950000D02*
X48775000Y42000000D01*
X57666100Y32771400D02*
X57666100Y34358900D01*
X26330000Y41175000D02*
X21850000Y41175000D01*
X21850000Y41175000D02*
X21775000Y41100000D01*
X31887500Y44087500D02*
X31237500Y44087500D01*
X28325000Y41175000D02*
X26330000Y41175000D01*
X31237500Y44087500D02*
X28325000Y41175000D01*
X40725000Y46075000D02*
X40275000Y46075000D01*
X40275000Y46075000D02*
X35625000Y50725000D01*
X35625000Y50725000D02*
X32625000Y50725000D01*
X32625000Y50725000D02*
X31100000Y49200000D01*
X31100000Y49200000D02*
X31100000Y44875000D01*
X31100000Y44875000D02*
X31887500Y44087500D01*
X31887500Y44087500D02*
X32260000Y43715000D01*
X32260000Y43715000D02*
X33950000Y43715000D01*
X57666100Y8771400D02*
X57666100Y7183900D01*
X57666100Y7183900D02*
X59175000Y5675000D01*
X57666100Y28883900D02*
X57666100Y32771400D01*
X62475000Y24075000D02*
X57666100Y28883900D01*
X62475000Y7275000D02*
X62475000Y24075000D01*
X60875000Y5675000D02*
X62475000Y7275000D01*
X59175000Y5675000D02*
X60875000Y5675000D01*
X57666100Y32771400D02*
X57666100Y31308900D01*
X17265000Y43655000D02*
X17150000Y43540000D01*
X21775000Y14985000D02*
X24645000Y14985000D01*
X26937500Y13462500D02*
X26167500Y13462500D01*
X26937500Y13462500D02*
X59237500Y13462500D01*
X24645000Y14985000D02*
X26167500Y13462500D01*
X21775000Y36100000D02*
X21775000Y14985000D01*
X21775000Y14985000D02*
X17855000Y11065000D01*
X21775000Y36100000D02*
X31800000Y36100000D01*
X31800000Y36100000D02*
X32125000Y36425000D01*
X33950000Y46255000D02*
X34895000Y46255000D01*
X34895000Y46255000D02*
X38200000Y42950000D01*
X38200000Y42950000D02*
X38200000Y36650000D01*
X60206100Y12493900D02*
X60206100Y8771400D01*
X59237500Y13462500D02*
X60206100Y12493900D01*
X58950000Y13750000D02*
X59237500Y13462500D01*
X37346100Y32771400D02*
X37346100Y34728900D01*
X33950000Y38125000D02*
X33950000Y41175000D01*
X37346100Y34728900D02*
X33950000Y38125000D01*
X37346100Y34378900D02*
X37346100Y32771400D01*
X39886100Y32771400D02*
X39886100Y43888900D01*
X39886100Y43888900D02*
X34980000Y48795000D01*
X34980000Y48795000D02*
X33950000Y48795000D01*
X39886100Y33963900D02*
X39886100Y32771400D01*
X44966100Y32771400D02*
X44966100Y35483900D01*
X46525000Y48100000D02*
X48750000Y48100000D01*
X43075000Y44650000D02*
X46525000Y48100000D01*
X43075000Y37375000D02*
X43075000Y44650000D01*
X44966100Y35483900D02*
X43075000Y37375000D01*
X48750000Y48100000D02*
X48775000Y48075000D01*
X44966100Y32771400D02*
X44966100Y31183900D01*
X47506100Y32771400D02*
X47506100Y35343900D01*
X46750000Y46075000D02*
X48775000Y46075000D01*
X44800000Y44125000D02*
X46750000Y46075000D01*
X44800000Y38050000D02*
X44800000Y44125000D01*
X47506100Y35343900D02*
X44800000Y38050000D01*
X50046100Y32771400D02*
X50046100Y35328900D01*
X46875000Y44075000D02*
X48775000Y44075000D01*
X46375000Y43575000D02*
X46875000Y44075000D01*
X46375000Y39000000D02*
X46375000Y43575000D01*
X50046100Y35328900D02*
X46375000Y39000000D01*
X21775000Y48620000D02*
X21775000Y51225000D01*
X21775000Y51225000D02*
X21725000Y51275000D01*
X26330000Y46255000D02*
X24795000Y46255000D01*
X22430000Y48620000D02*
X21775000Y48620000D01*
X21775000Y48620000D02*
X17150000Y48620000D01*
X24795000Y46255000D02*
X22430000Y48620000D01*
X21775000Y51225000D02*
X21725000Y51275000D01*
X21725000Y43655000D02*
X21595000Y43655000D01*
X21595000Y43655000D02*
X19170000Y46080000D01*
X19170000Y46080000D02*
X17150000Y46080000D01*
X17325000Y46255000D02*
X17150000Y46080000D01*
X26330000Y43715000D02*
X21785000Y43715000D01*
X21785000Y43715000D02*
X21725000Y43655000D01*
X17150000Y41000000D02*
X17150000Y32090000D01*
X17150000Y32090000D02*
X17855000Y31385000D01*
X17250000Y41100000D02*
X17150000Y41000000D01*
X17325000Y41175000D02*
X17150000Y41000000D01*
G36*
X29460786Y53639214D02*
X29460784Y53639211D01*
X26885936Y51064364D01*
X26731917Y51095000D01*
X25928083Y51095000D01*
X25047911Y50919923D01*
X24301737Y50421346D01*
X23963416Y49915012D01*
X23895071Y49983357D01*
X24224055Y50775639D01*
X24224923Y51769998D01*
X23845200Y52688998D01*
X23142696Y53392729D01*
X22224361Y53774055D01*
X21230002Y53774923D01*
X20311002Y53395200D01*
X19607271Y52692696D01*
X19225945Y51774361D01*
X19225077Y50780002D01*
X19291188Y50620000D01*
X18351440Y50620000D01*
X18095345Y50791117D01*
X17196039Y50970000D01*
X17103961Y50970000D01*
X16204655Y50791117D01*
X15442260Y50281701D01*
X14932844Y49519306D01*
X14753961Y48620000D01*
X14932844Y47720694D01*
X15180534Y47350000D01*
X14932844Y46979306D01*
X14753961Y46080000D01*
X14932844Y45180694D01*
X15442260Y44418299D01*
X15521219Y44365540D01*
X15332317Y43924967D01*
X15323362Y43879934D01*
X15544779Y43590000D01*
X17100000Y43590000D01*
X17100000Y43610000D01*
X17200000Y43610000D01*
X17200000Y43590000D01*
X17220000Y43590000D01*
X17220000Y43490000D01*
X17200000Y43490000D01*
X17200000Y43470000D01*
X17100000Y43470000D01*
X17100000Y43490000D01*
X15544779Y43490000D01*
X15323362Y43200066D01*
X15332317Y43155033D01*
X15381124Y43041202D01*
X15233604Y42946276D01*
X14891108Y42445017D01*
X14770614Y41850000D01*
X14770614Y40150000D01*
X14875207Y39594133D01*
X15150000Y39167093D01*
X15150000Y32693536D01*
X14855522Y31984355D01*
X14854481Y30790881D01*
X15310241Y29687857D01*
X16153418Y28843207D01*
X17255645Y28385522D01*
X18449119Y28384481D01*
X19552143Y28840241D01*
X19775000Y29062709D01*
X19775000Y15813427D01*
X18026424Y14064851D01*
X17260881Y14065519D01*
X16157857Y13609759D01*
X15313207Y12766582D01*
X14855522Y11664355D01*
X14854481Y10470881D01*
X15310241Y9367857D01*
X16153418Y8523207D01*
X17255645Y8065522D01*
X18449119Y8064481D01*
X19552143Y8520241D01*
X20396793Y9363418D01*
X20854478Y10465645D01*
X20855151Y11236723D01*
X22603427Y12985000D01*
X23816572Y12985000D01*
X24733983Y12067590D01*
X24646100Y12085071D01*
X23689391Y11894770D01*
X22878333Y11352838D01*
X22336401Y10541780D01*
X22146100Y9585071D01*
X22146100Y7957729D01*
X22336401Y7001020D01*
X22878333Y6189962D01*
X23689391Y5648030D01*
X24646100Y5457729D01*
X25602809Y5648030D01*
X25916100Y5857364D01*
X26229391Y5648030D01*
X27186100Y5457729D01*
X28142809Y5648030D01*
X28456100Y5857364D01*
X28769391Y5648030D01*
X29726100Y5457729D01*
X30682809Y5648030D01*
X30996100Y5857364D01*
X31309391Y5648030D01*
X32266100Y5457729D01*
X33222809Y5648030D01*
X33536100Y5857364D01*
X33849391Y5648030D01*
X34806100Y5457729D01*
X35762809Y5648030D01*
X36076100Y5857364D01*
X36389391Y5648030D01*
X37346100Y5457729D01*
X38302809Y5648030D01*
X38616100Y5857364D01*
X38929391Y5648030D01*
X39886100Y5457729D01*
X40842809Y5648030D01*
X41156100Y5857364D01*
X41469391Y5648030D01*
X42426100Y5457729D01*
X43382809Y5648030D01*
X43696100Y5857364D01*
X44009391Y5648030D01*
X44966100Y5457729D01*
X45922809Y5648030D01*
X46236100Y5857364D01*
X46549391Y5648030D01*
X47506100Y5457729D01*
X48462809Y5648030D01*
X48776100Y5857364D01*
X49089391Y5648030D01*
X50046100Y5457729D01*
X51002809Y5648030D01*
X51316100Y5857364D01*
X51629391Y5648030D01*
X52586100Y5457729D01*
X53542809Y5648030D01*
X53856100Y5857364D01*
X54169391Y5648030D01*
X55126100Y5457729D01*
X56082809Y5648030D01*
X56885250Y6184205D01*
X56943865Y6147116D01*
X57302693Y6046559D01*
X57616100Y6266112D01*
X57616100Y7907456D01*
X57626100Y7957729D01*
X57626100Y8841400D01*
X57706100Y8841400D01*
X57706100Y7957729D01*
X57716100Y7907456D01*
X57716100Y6266112D01*
X58029507Y6046559D01*
X58388335Y6147116D01*
X58446950Y6184205D01*
X59249391Y5648030D01*
X60206100Y5457729D01*
X61162809Y5648030D01*
X61973867Y6189962D01*
X62515799Y7001020D01*
X62706100Y7957729D01*
X62706100Y9585071D01*
X62515799Y10541780D01*
X62206100Y11005277D01*
X62206100Y12493900D01*
X62053859Y13259267D01*
X61620314Y13908114D01*
X61620311Y13908116D01*
X60651714Y14876714D01*
X60651711Y14876716D01*
X60364214Y15164214D01*
X59715367Y15597759D01*
X58950000Y15750001D01*
X58184633Y15597759D01*
X57982203Y15462500D01*
X26995927Y15462500D01*
X26059214Y16399214D01*
X25410367Y16832759D01*
X24645000Y16985001D01*
X24644995Y16985000D01*
X23775000Y16985000D01*
X23775000Y29631001D01*
X24646100Y29457729D01*
X25602809Y29648030D01*
X25916100Y29857364D01*
X26229391Y29648030D01*
X27186100Y29457729D01*
X28142809Y29648030D01*
X28456100Y29857364D01*
X28769391Y29648030D01*
X29726100Y29457729D01*
X30682809Y29648030D01*
X30996100Y29857364D01*
X31309391Y29648030D01*
X32266100Y29457729D01*
X33222809Y29648030D01*
X33536100Y29857364D01*
X33849391Y29648030D01*
X34806100Y29457729D01*
X35762809Y29648030D01*
X36076100Y29857364D01*
X36389391Y29648030D01*
X37346100Y29457729D01*
X38302809Y29648030D01*
X38616100Y29857364D01*
X38929391Y29648030D01*
X39886100Y29457729D01*
X40842809Y29648030D01*
X41156100Y29857364D01*
X41469391Y29648030D01*
X42426100Y29457729D01*
X43382809Y29648030D01*
X43558383Y29765345D01*
X44200733Y29336141D01*
X44966100Y29183900D01*
X45731467Y29336141D01*
X46373817Y29765345D01*
X46549391Y29648030D01*
X47506100Y29457729D01*
X48462809Y29648030D01*
X48776100Y29857364D01*
X49089391Y29648030D01*
X50046100Y29457729D01*
X51002809Y29648030D01*
X51316100Y29857364D01*
X51629391Y29648030D01*
X52586100Y29457729D01*
X53542809Y29648030D01*
X53856100Y29857364D01*
X54169391Y29648030D01*
X55126100Y29457729D01*
X56082809Y29648030D01*
X56885250Y30184205D01*
X56943865Y30147116D01*
X57302693Y30046559D01*
X57616100Y30266112D01*
X57616100Y31907456D01*
X57626100Y31957729D01*
X57626100Y32841400D01*
X57706100Y32841400D01*
X57706100Y31957729D01*
X57716100Y31907456D01*
X57716100Y30266112D01*
X58029507Y30046559D01*
X58388335Y30147116D01*
X58446950Y30184205D01*
X59249391Y29648030D01*
X60206100Y29457729D01*
X61162809Y29648030D01*
X61973867Y30189962D01*
X62515799Y31001020D01*
X62706100Y31957729D01*
X62706100Y33585071D01*
X62515799Y34541780D01*
X62493602Y34575000D01*
X70850000Y34575000D01*
X70850000Y2700000D01*
X3125000Y2700000D01*
X3125000Y9400051D01*
X6100762Y9400051D01*
X6232692Y8967240D01*
X7146782Y8567322D01*
X8144332Y8547652D01*
X9073476Y8911226D01*
X9157308Y8967240D01*
X9289238Y9400051D01*
X7695000Y10994289D01*
X6100762Y9400051D01*
X3125000Y9400051D01*
X3125000Y10615668D01*
X5177652Y10615668D01*
X5541226Y9686524D01*
X5597240Y9602692D01*
X6030051Y9470762D01*
X7624289Y11065000D01*
X7765711Y11065000D01*
X9359949Y9470762D01*
X9792760Y9602692D01*
X10192678Y10516782D01*
X10212348Y11514332D01*
X9848774Y12443476D01*
X9792760Y12527308D01*
X9359949Y12659238D01*
X7765711Y11065000D01*
X7624289Y11065000D01*
X6030051Y12659238D01*
X5597240Y12527308D01*
X5197322Y11613218D01*
X5177652Y10615668D01*
X3125000Y10615668D01*
X3125000Y12729949D01*
X6100762Y12729949D01*
X7695000Y11135711D01*
X9289238Y12729949D01*
X9157308Y13162760D01*
X8243218Y13562678D01*
X7245668Y13582348D01*
X6316524Y13218774D01*
X6232692Y13162760D01*
X6100762Y12729949D01*
X3125000Y12729949D01*
X3125000Y29560051D01*
X6180762Y29560051D01*
X6312692Y29127240D01*
X7226782Y28727322D01*
X8224332Y28707652D01*
X9153476Y29071226D01*
X9237308Y29127240D01*
X9369238Y29560051D01*
X7775000Y31154289D01*
X6180762Y29560051D01*
X3125000Y29560051D01*
X3125000Y30775668D01*
X5257652Y30775668D01*
X5621226Y29846524D01*
X5677240Y29762692D01*
X6110051Y29630762D01*
X7704289Y31225000D01*
X7845711Y31225000D01*
X9439949Y29630762D01*
X9872760Y29762692D01*
X10272678Y30676782D01*
X10292348Y31674332D01*
X9928774Y32603476D01*
X9872760Y32687308D01*
X9439949Y32819238D01*
X7845711Y31225000D01*
X7704289Y31225000D01*
X6110051Y32819238D01*
X5677240Y32687308D01*
X5277322Y31773218D01*
X5257652Y30775668D01*
X3125000Y30775668D01*
X3125000Y32889949D01*
X6180762Y32889949D01*
X7775000Y31295711D01*
X9369238Y32889949D01*
X9237308Y33322760D01*
X8323218Y33722678D01*
X7325668Y33742348D01*
X6396524Y33378774D01*
X6312692Y33322760D01*
X6180762Y32889949D01*
X3125000Y32889949D01*
X3125000Y53900000D01*
X29851080Y53900000D01*
X29460786Y53639214D01*
X29460786Y53639214D01*
G37*
X29460786Y53639214D02*
X29460784Y53639211D01*
X26885936Y51064364D01*
X26731917Y51095000D01*
X25928083Y51095000D01*
X25047911Y50919923D01*
X24301737Y50421346D01*
X23963416Y49915012D01*
X23895071Y49983357D01*
X24224055Y50775639D01*
X24224923Y51769998D01*
X23845200Y52688998D01*
X23142696Y53392729D01*
X22224361Y53774055D01*
X21230002Y53774923D01*
X20311002Y53395200D01*
X19607271Y52692696D01*
X19225945Y51774361D01*
X19225077Y50780002D01*
X19291188Y50620000D01*
X18351440Y50620000D01*
X18095345Y50791117D01*
X17196039Y50970000D01*
X17103961Y50970000D01*
X16204655Y50791117D01*
X15442260Y50281701D01*
X14932844Y49519306D01*
X14753961Y48620000D01*
X14932844Y47720694D01*
X15180534Y47350000D01*
X14932844Y46979306D01*
X14753961Y46080000D01*
X14932844Y45180694D01*
X15442260Y44418299D01*
X15521219Y44365540D01*
X15332317Y43924967D01*
X15323362Y43879934D01*
X15544779Y43590000D01*
X17100000Y43590000D01*
X17100000Y43610000D01*
X17200000Y43610000D01*
X17200000Y43590000D01*
X17220000Y43590000D01*
X17220000Y43490000D01*
X17200000Y43490000D01*
X17200000Y43470000D01*
X17100000Y43470000D01*
X17100000Y43490000D01*
X15544779Y43490000D01*
X15323362Y43200066D01*
X15332317Y43155033D01*
X15381124Y43041202D01*
X15233604Y42946276D01*
X14891108Y42445017D01*
X14770614Y41850000D01*
X14770614Y40150000D01*
X14875207Y39594133D01*
X15150000Y39167093D01*
X15150000Y32693536D01*
X14855522Y31984355D01*
X14854481Y30790881D01*
X15310241Y29687857D01*
X16153418Y28843207D01*
X17255645Y28385522D01*
X18449119Y28384481D01*
X19552143Y28840241D01*
X19775000Y29062709D01*
X19775000Y15813427D01*
X18026424Y14064851D01*
X17260881Y14065519D01*
X16157857Y13609759D01*
X15313207Y12766582D01*
X14855522Y11664355D01*
X14854481Y10470881D01*
X15310241Y9367857D01*
X16153418Y8523207D01*
X17255645Y8065522D01*
X18449119Y8064481D01*
X19552143Y8520241D01*
X20396793Y9363418D01*
X20854478Y10465645D01*
X20855151Y11236723D01*
X22603427Y12985000D01*
X23816572Y12985000D01*
X24733983Y12067590D01*
X24646100Y12085071D01*
X23689391Y11894770D01*
X22878333Y11352838D01*
X22336401Y10541780D01*
X22146100Y9585071D01*
X22146100Y7957729D01*
X22336401Y7001020D01*
X22878333Y6189962D01*
X23689391Y5648030D01*
X24646100Y5457729D01*
X25602809Y5648030D01*
X25916100Y5857364D01*
X26229391Y5648030D01*
X27186100Y5457729D01*
X28142809Y5648030D01*
X28456100Y5857364D01*
X28769391Y5648030D01*
X29726100Y5457729D01*
X30682809Y5648030D01*
X30996100Y5857364D01*
X31309391Y5648030D01*
X32266100Y5457729D01*
X33222809Y5648030D01*
X33536100Y5857364D01*
X33849391Y5648030D01*
X34806100Y5457729D01*
X35762809Y5648030D01*
X36076100Y5857364D01*
X36389391Y5648030D01*
X37346100Y5457729D01*
X38302809Y5648030D01*
X38616100Y5857364D01*
X38929391Y5648030D01*
X39886100Y5457729D01*
X40842809Y5648030D01*
X41156100Y5857364D01*
X41469391Y5648030D01*
X42426100Y5457729D01*
X43382809Y5648030D01*
X43696100Y5857364D01*
X44009391Y5648030D01*
X44966100Y5457729D01*
X45922809Y5648030D01*
X46236100Y5857364D01*
X46549391Y5648030D01*
X47506100Y5457729D01*
X48462809Y5648030D01*
X48776100Y5857364D01*
X49089391Y5648030D01*
X50046100Y5457729D01*
X51002809Y5648030D01*
X51316100Y5857364D01*
X51629391Y5648030D01*
X52586100Y5457729D01*
X53542809Y5648030D01*
X53856100Y5857364D01*
X54169391Y5648030D01*
X55126100Y5457729D01*
X56082809Y5648030D01*
X56885250Y6184205D01*
X56943865Y6147116D01*
X57302693Y6046559D01*
X57616100Y6266112D01*
X57616100Y7907456D01*
X57626100Y7957729D01*
X57626100Y8841400D01*
X57706100Y8841400D01*
X57706100Y7957729D01*
X57716100Y7907456D01*
X57716100Y6266112D01*
X58029507Y6046559D01*
X58388335Y6147116D01*
X58446950Y6184205D01*
X59249391Y5648030D01*
X60206100Y5457729D01*
X61162809Y5648030D01*
X61973867Y6189962D01*
X62515799Y7001020D01*
X62706100Y7957729D01*
X62706100Y9585071D01*
X62515799Y10541780D01*
X62206100Y11005277D01*
X62206100Y12493900D01*
X62053859Y13259267D01*
X61620314Y13908114D01*
X61620311Y13908116D01*
X60651714Y14876714D01*
X60651711Y14876716D01*
X60364214Y15164214D01*
X59715367Y15597759D01*
X58950000Y15750001D01*
X58184633Y15597759D01*
X57982203Y15462500D01*
X26995927Y15462500D01*
X26059214Y16399214D01*
X25410367Y16832759D01*
X24645000Y16985001D01*
X24644995Y16985000D01*
X23775000Y16985000D01*
X23775000Y29631001D01*
X24646100Y29457729D01*
X25602809Y29648030D01*
X25916100Y29857364D01*
X26229391Y29648030D01*
X27186100Y29457729D01*
X28142809Y29648030D01*
X28456100Y29857364D01*
X28769391Y29648030D01*
X29726100Y29457729D01*
X30682809Y29648030D01*
X30996100Y29857364D01*
X31309391Y29648030D01*
X32266100Y29457729D01*
X33222809Y29648030D01*
X33536100Y29857364D01*
X33849391Y29648030D01*
X34806100Y29457729D01*
X35762809Y29648030D01*
X36076100Y29857364D01*
X36389391Y29648030D01*
X37346100Y29457729D01*
X38302809Y29648030D01*
X38616100Y29857364D01*
X38929391Y29648030D01*
X39886100Y29457729D01*
X40842809Y29648030D01*
X41156100Y29857364D01*
X41469391Y29648030D01*
X42426100Y29457729D01*
X43382809Y29648030D01*
X43558383Y29765345D01*
X44200733Y29336141D01*
X44966100Y29183900D01*
X45731467Y29336141D01*
X46373817Y29765345D01*
X46549391Y29648030D01*
X47506100Y29457729D01*
X48462809Y29648030D01*
X48776100Y29857364D01*
X49089391Y29648030D01*
X50046100Y29457729D01*
X51002809Y29648030D01*
X51316100Y29857364D01*
X51629391Y29648030D01*
X52586100Y29457729D01*
X53542809Y29648030D01*
X53856100Y29857364D01*
X54169391Y29648030D01*
X55126100Y29457729D01*
X56082809Y29648030D01*
X56885250Y30184205D01*
X56943865Y30147116D01*
X57302693Y30046559D01*
X57616100Y30266112D01*
X57616100Y31907456D01*
X57626100Y31957729D01*
X57626100Y32841400D01*
X57706100Y32841400D01*
X57706100Y31957729D01*
X57716100Y31907456D01*
X57716100Y30266112D01*
X58029507Y30046559D01*
X58388335Y30147116D01*
X58446950Y30184205D01*
X59249391Y29648030D01*
X60206100Y29457729D01*
X61162809Y29648030D01*
X61973867Y30189962D01*
X62515799Y31001020D01*
X62706100Y31957729D01*
X62706100Y33585071D01*
X62515799Y34541780D01*
X62493602Y34575000D01*
X70850000Y34575000D01*
X70850000Y2700000D01*
X3125000Y2700000D01*
X3125000Y9400051D01*
X6100762Y9400051D01*
X6232692Y8967240D01*
X7146782Y8567322D01*
X8144332Y8547652D01*
X9073476Y8911226D01*
X9157308Y8967240D01*
X9289238Y9400051D01*
X7695000Y10994289D01*
X6100762Y9400051D01*
X3125000Y9400051D01*
X3125000Y10615668D01*
X5177652Y10615668D01*
X5541226Y9686524D01*
X5597240Y9602692D01*
X6030051Y9470762D01*
X7624289Y11065000D01*
X7765711Y11065000D01*
X9359949Y9470762D01*
X9792760Y9602692D01*
X10192678Y10516782D01*
X10212348Y11514332D01*
X9848774Y12443476D01*
X9792760Y12527308D01*
X9359949Y12659238D01*
X7765711Y11065000D01*
X7624289Y11065000D01*
X6030051Y12659238D01*
X5597240Y12527308D01*
X5197322Y11613218D01*
X5177652Y10615668D01*
X3125000Y10615668D01*
X3125000Y12729949D01*
X6100762Y12729949D01*
X7695000Y11135711D01*
X9289238Y12729949D01*
X9157308Y13162760D01*
X8243218Y13562678D01*
X7245668Y13582348D01*
X6316524Y13218774D01*
X6232692Y13162760D01*
X6100762Y12729949D01*
X3125000Y12729949D01*
X3125000Y29560051D01*
X6180762Y29560051D01*
X6312692Y29127240D01*
X7226782Y28727322D01*
X8224332Y28707652D01*
X9153476Y29071226D01*
X9237308Y29127240D01*
X9369238Y29560051D01*
X7775000Y31154289D01*
X6180762Y29560051D01*
X3125000Y29560051D01*
X3125000Y30775668D01*
X5257652Y30775668D01*
X5621226Y29846524D01*
X5677240Y29762692D01*
X6110051Y29630762D01*
X7704289Y31225000D01*
X7845711Y31225000D01*
X9439949Y29630762D01*
X9872760Y29762692D01*
X10272678Y30676782D01*
X10292348Y31674332D01*
X9928774Y32603476D01*
X9872760Y32687308D01*
X9439949Y32819238D01*
X7845711Y31225000D01*
X7704289Y31225000D01*
X6110051Y32819238D01*
X5677240Y32687308D01*
X5277322Y31773218D01*
X5257652Y30775668D01*
X3125000Y30775668D01*
X3125000Y32889949D01*
X6180762Y32889949D01*
X7775000Y31295711D01*
X9369238Y32889949D01*
X9237308Y33322760D01*
X8323218Y33722678D01*
X7325668Y33742348D01*
X6396524Y33378774D01*
X6312692Y33322760D01*
X6180762Y32889949D01*
X3125000Y32889949D01*
X3125000Y53900000D01*
X29851080Y53900000D01*
X29460786Y53639214D01*
G36*
X31423160Y49675172D02*
X31248083Y48795000D01*
X31423160Y47914828D01*
X31683634Y47525000D01*
X31423160Y47135172D01*
X31248083Y46255000D01*
X31423160Y45374828D01*
X31921737Y44628654D01*
X32032475Y44554661D01*
X31910491Y44360698D01*
X31822765Y44047110D01*
X32044804Y43765000D01*
X33900000Y43765000D01*
X33900000Y43785000D01*
X34000000Y43785000D01*
X34000000Y43765000D01*
X34020000Y43765000D01*
X34020000Y43665000D01*
X34000000Y43665000D01*
X34000000Y43645000D01*
X33900000Y43645000D01*
X33900000Y43665000D01*
X32044804Y43665000D01*
X31822765Y43382890D01*
X31910491Y43069302D01*
X32032475Y42875339D01*
X31921737Y42801346D01*
X31423160Y42055172D01*
X31248083Y41175000D01*
X31423160Y40294828D01*
X31921737Y39548654D01*
X31950000Y39529769D01*
X31950000Y38390190D01*
X31359633Y38272759D01*
X31101081Y38100000D01*
X23229386Y38100000D01*
X23070017Y38208892D01*
X22475000Y38329386D01*
X21075000Y38329386D01*
X20519133Y38224793D01*
X20008604Y37896276D01*
X19666108Y37395017D01*
X19545614Y36800000D01*
X19545614Y35400000D01*
X19650207Y34844133D01*
X19775000Y34650200D01*
X19775000Y33707993D01*
X19556582Y33926793D01*
X19150000Y34095621D01*
X19150000Y39176082D01*
X19408892Y39554983D01*
X19501446Y40012029D01*
X20757740Y40012029D01*
X20792267Y39662319D01*
X21417251Y39395680D01*
X22096698Y39388510D01*
X22727169Y39641898D01*
X22757733Y39662319D01*
X22792260Y40012029D01*
X21775000Y41029289D01*
X20757740Y40012029D01*
X19501446Y40012029D01*
X19529386Y40150000D01*
X19529386Y41850000D01*
X19424793Y42405867D01*
X19096276Y42916396D01*
X18917685Y43038422D01*
X18967683Y43155033D01*
X18976638Y43200066D01*
X18755223Y43489998D01*
X18931574Y43489998D01*
X19225109Y43196464D01*
X19225077Y43160002D01*
X19604800Y42241002D01*
X20165297Y41679526D01*
X20070680Y41457749D01*
X20063510Y40778302D01*
X20316898Y40147831D01*
X20337319Y40117267D01*
X20687029Y40082740D01*
X21704289Y41100000D01*
X21690147Y41114142D01*
X21731508Y41155503D01*
X21818568Y41155427D01*
X21859853Y41114142D01*
X21845711Y41100000D01*
X22862971Y40082740D01*
X23212681Y40117267D01*
X23479320Y40742251D01*
X23480382Y40842890D01*
X24202765Y40842890D01*
X24290491Y40529302D01*
X24666195Y39931906D01*
X25241914Y39523760D01*
X25930000Y39367000D01*
X26280000Y39367000D01*
X26280000Y41125000D01*
X26380000Y41125000D01*
X26380000Y39367000D01*
X26730000Y39367000D01*
X27418086Y39523760D01*
X27993805Y39931906D01*
X28369509Y40529302D01*
X28457235Y40842890D01*
X28235196Y41125000D01*
X26380000Y41125000D01*
X26280000Y41125000D01*
X24424804Y41125000D01*
X24202765Y40842890D01*
X23480382Y40842890D01*
X23486490Y41421698D01*
X23368611Y41715000D01*
X24260922Y41715000D01*
X24202765Y41507110D01*
X24424804Y41225000D01*
X26280000Y41225000D01*
X26280000Y41245000D01*
X26380000Y41245000D01*
X26380000Y41225000D01*
X28235196Y41225000D01*
X28457235Y41507110D01*
X28369509Y41820698D01*
X28247525Y42014661D01*
X28358263Y42088654D01*
X28856840Y42834828D01*
X29031917Y43715000D01*
X28856840Y44595172D01*
X28596366Y44985000D01*
X28856840Y45374828D01*
X29031917Y46255000D01*
X28856840Y47135172D01*
X28744114Y47303879D01*
X28859214Y47380786D01*
X31703427Y50225000D01*
X31790543Y50225000D01*
X31423160Y49675172D01*
X31423160Y49675172D01*
G37*
X31423160Y49675172D02*
X31248083Y48795000D01*
X31423160Y47914828D01*
X31683634Y47525000D01*
X31423160Y47135172D01*
X31248083Y46255000D01*
X31423160Y45374828D01*
X31921737Y44628654D01*
X32032475Y44554661D01*
X31910491Y44360698D01*
X31822765Y44047110D01*
X32044804Y43765000D01*
X33900000Y43765000D01*
X33900000Y43785000D01*
X34000000Y43785000D01*
X34000000Y43765000D01*
X34020000Y43765000D01*
X34020000Y43665000D01*
X34000000Y43665000D01*
X34000000Y43645000D01*
X33900000Y43645000D01*
X33900000Y43665000D01*
X32044804Y43665000D01*
X31822765Y43382890D01*
X31910491Y43069302D01*
X32032475Y42875339D01*
X31921737Y42801346D01*
X31423160Y42055172D01*
X31248083Y41175000D01*
X31423160Y40294828D01*
X31921737Y39548654D01*
X31950000Y39529769D01*
X31950000Y38390190D01*
X31359633Y38272759D01*
X31101081Y38100000D01*
X23229386Y38100000D01*
X23070017Y38208892D01*
X22475000Y38329386D01*
X21075000Y38329386D01*
X20519133Y38224793D01*
X20008604Y37896276D01*
X19666108Y37395017D01*
X19545614Y36800000D01*
X19545614Y35400000D01*
X19650207Y34844133D01*
X19775000Y34650200D01*
X19775000Y33707993D01*
X19556582Y33926793D01*
X19150000Y34095621D01*
X19150000Y39176082D01*
X19408892Y39554983D01*
X19501446Y40012029D01*
X20757740Y40012029D01*
X20792267Y39662319D01*
X21417251Y39395680D01*
X22096698Y39388510D01*
X22727169Y39641898D01*
X22757733Y39662319D01*
X22792260Y40012029D01*
X21775000Y41029289D01*
X20757740Y40012029D01*
X19501446Y40012029D01*
X19529386Y40150000D01*
X19529386Y41850000D01*
X19424793Y42405867D01*
X19096276Y42916396D01*
X18917685Y43038422D01*
X18967683Y43155033D01*
X18976638Y43200066D01*
X18755223Y43489998D01*
X18931574Y43489998D01*
X19225109Y43196464D01*
X19225077Y43160002D01*
X19604800Y42241002D01*
X20165297Y41679526D01*
X20070680Y41457749D01*
X20063510Y40778302D01*
X20316898Y40147831D01*
X20337319Y40117267D01*
X20687029Y40082740D01*
X21704289Y41100000D01*
X21690147Y41114142D01*
X21731508Y41155503D01*
X21818568Y41155427D01*
X21859853Y41114142D01*
X21845711Y41100000D01*
X22862971Y40082740D01*
X23212681Y40117267D01*
X23479320Y40742251D01*
X23480382Y40842890D01*
X24202765Y40842890D01*
X24290491Y40529302D01*
X24666195Y39931906D01*
X25241914Y39523760D01*
X25930000Y39367000D01*
X26280000Y39367000D01*
X26280000Y41125000D01*
X26380000Y41125000D01*
X26380000Y39367000D01*
X26730000Y39367000D01*
X27418086Y39523760D01*
X27993805Y39931906D01*
X28369509Y40529302D01*
X28457235Y40842890D01*
X28235196Y41125000D01*
X26380000Y41125000D01*
X26280000Y41125000D01*
X24424804Y41125000D01*
X24202765Y40842890D01*
X23480382Y40842890D01*
X23486490Y41421698D01*
X23368611Y41715000D01*
X24260922Y41715000D01*
X24202765Y41507110D01*
X24424804Y41225000D01*
X26280000Y41225000D01*
X26280000Y41245000D01*
X26380000Y41245000D01*
X26380000Y41225000D01*
X28235196Y41225000D01*
X28457235Y41507110D01*
X28369509Y41820698D01*
X28247525Y42014661D01*
X28358263Y42088654D01*
X28856840Y42834828D01*
X29031917Y43715000D01*
X28856840Y44595172D01*
X28596366Y44985000D01*
X28856840Y45374828D01*
X29031917Y46255000D01*
X28856840Y47135172D01*
X28744114Y47303879D01*
X28859214Y47380786D01*
X31703427Y50225000D01*
X31790543Y50225000D01*
X31423160Y49675172D01*
G36*
X54250000Y42621573D02*
X54250000Y38275005D01*
X54249999Y38275000D01*
X54402241Y37509633D01*
X54835786Y36860786D01*
X55732028Y35964545D01*
X55126100Y36085071D01*
X54169391Y35894770D01*
X53856100Y35685436D01*
X53542809Y35894770D01*
X52586100Y36085071D01*
X51921965Y35952967D01*
X51893859Y36094267D01*
X51460314Y36743114D01*
X51460311Y36743116D01*
X49781948Y38421480D01*
X49993951Y38469954D01*
X50553449Y38867261D01*
X50918315Y39448436D01*
X51002832Y39750715D01*
X50780170Y40025000D01*
X48825000Y40025000D01*
X48825000Y40005000D01*
X48725000Y40005000D01*
X48725000Y40025000D01*
X48705000Y40025000D01*
X48705000Y40125000D01*
X48725000Y40125000D01*
X48725000Y40145000D01*
X48825000Y40145000D01*
X48825000Y40125000D01*
X50780170Y40125000D01*
X51002832Y40399285D01*
X50918315Y40701564D01*
X50683869Y41075000D01*
X50918315Y41448436D01*
X51002832Y41750715D01*
X50780170Y42025000D01*
X50232910Y42025000D01*
X50382570Y42125000D01*
X50780170Y42125000D01*
X51002832Y42399285D01*
X50961656Y42546553D01*
X51407605Y43213962D01*
X51578876Y44075000D01*
X51407605Y44936038D01*
X51314753Y45075000D01*
X51407605Y45213962D01*
X51449084Y45422489D01*
X54250000Y42621573D01*
X54250000Y42621573D01*
G37*
X54250000Y42621573D02*
X54250000Y38275005D01*
X54249999Y38275000D01*
X54402241Y37509633D01*
X54835786Y36860786D01*
X55732028Y35964545D01*
X55126100Y36085071D01*
X54169391Y35894770D01*
X53856100Y35685436D01*
X53542809Y35894770D01*
X52586100Y36085071D01*
X51921965Y35952967D01*
X51893859Y36094267D01*
X51460314Y36743114D01*
X51460311Y36743116D01*
X49781948Y38421480D01*
X49993951Y38469954D01*
X50553449Y38867261D01*
X50918315Y39448436D01*
X51002832Y39750715D01*
X50780170Y40025000D01*
X48825000Y40025000D01*
X48825000Y40005000D01*
X48725000Y40005000D01*
X48725000Y40025000D01*
X48705000Y40025000D01*
X48705000Y40125000D01*
X48725000Y40125000D01*
X48725000Y40145000D01*
X48825000Y40145000D01*
X48825000Y40125000D01*
X50780170Y40125000D01*
X51002832Y40399285D01*
X50918315Y40701564D01*
X50683869Y41075000D01*
X50918315Y41448436D01*
X51002832Y41750715D01*
X50780170Y42025000D01*
X50232910Y42025000D01*
X50382570Y42125000D01*
X50780170Y42125000D01*
X51002832Y42399285D01*
X50961656Y42546553D01*
X51407605Y43213962D01*
X51578876Y44075000D01*
X51407605Y44936038D01*
X51314753Y45075000D01*
X51407605Y45213962D01*
X51449084Y45422489D01*
X54250000Y42621573D01*
G36*
X38600207Y49819133D02*
X38928724Y49308604D01*
X39429983Y48966108D01*
X40025000Y48845614D01*
X40050959Y48845614D01*
X40310784Y48585789D01*
X40310786Y48585786D01*
X40959633Y48152241D01*
X41086616Y48126982D01*
X41725000Y47999999D01*
X41725005Y48000000D01*
X43596573Y48000000D01*
X42309426Y46712854D01*
X42183102Y47027169D01*
X42162681Y47057733D01*
X41812971Y47092260D01*
X40795711Y46075000D01*
X40809853Y46060858D01*
X40739142Y45990147D01*
X40725000Y46004289D01*
X40710858Y45990147D01*
X40640147Y46060858D01*
X40654289Y46075000D01*
X39637029Y47092260D01*
X39522477Y47080950D01*
X39440457Y47162971D01*
X39707740Y47162971D01*
X40725000Y46145711D01*
X41742260Y47162971D01*
X41707733Y47512681D01*
X41082749Y47779320D01*
X40403302Y47786490D01*
X39772831Y47533102D01*
X39742267Y47512681D01*
X39707740Y47162971D01*
X39440457Y47162971D01*
X36394214Y50209214D01*
X36370589Y50225000D01*
X38523838Y50225000D01*
X38600207Y49819133D01*
X38600207Y49819133D01*
G37*
X38600207Y49819133D02*
X38928724Y49308604D01*
X39429983Y48966108D01*
X40025000Y48845614D01*
X40050959Y48845614D01*
X40310784Y48585789D01*
X40310786Y48585786D01*
X40959633Y48152241D01*
X41086616Y48126982D01*
X41725000Y47999999D01*
X41725005Y48000000D01*
X43596573Y48000000D01*
X42309426Y46712854D01*
X42183102Y47027169D01*
X42162681Y47057733D01*
X41812971Y47092260D01*
X40795711Y46075000D01*
X40809853Y46060858D01*
X40739142Y45990147D01*
X40725000Y46004289D01*
X40710858Y45990147D01*
X40640147Y46060858D01*
X40654289Y46075000D01*
X39637029Y47092260D01*
X39522477Y47080950D01*
X39440457Y47162971D01*
X39707740Y47162971D01*
X40725000Y46145711D01*
X41742260Y47162971D01*
X41707733Y47512681D01*
X41082749Y47779320D01*
X40403302Y47786490D01*
X39772831Y47533102D01*
X39742267Y47512681D01*
X39707740Y47162971D01*
X39440457Y47162971D01*
X36394214Y50209214D01*
X36370589Y50225000D01*
X38523838Y50225000D01*
X38600207Y49819133D01*
M02*
