M48
METRIC,TZ
T1C0.400
T2C0.800
T3C0.900
T4C1.000
T5C1.001
%
G90
G05
T1
X32125Y36425
X38200Y36650
T2
X7695Y11065
X7775Y31225
X17855Y31385
X17855Y11065
X26330Y48795
X26330Y46255
X26330Y43715
X26330Y41175
X33950Y48795
X33950Y46255
X33950Y43715
X33950Y41175
T3
X21775Y41100
X21775Y36100
X40725Y51075
X40725Y46075
T4
X17150Y48620
X17150Y46080
X17150Y43540
X17150Y41000
X24646Y32771
X24646Y8771
X27186Y32771
X27186Y8771
X29726Y32771
X29726Y8771
X32266Y32771
X32266Y8771
X34806Y32771
X34806Y8771
X37346Y32771
X37346Y8771
X39886Y32771
X39886Y8771
X42426Y32771
X42426Y8771
X44966Y32771
X44966Y8771
X47506Y32771
X47506Y8771
X48775Y50075
X48775Y48075
X48775Y46075
X48775Y44075
X48775Y42075
X48775Y40075
X50046Y32771
X50046Y8771
X52586Y32771
X52586Y8771
X55126Y32771
X55126Y8771
X57666Y32771
X57666Y8771
X60206Y32771
X60206Y8771
T5
X21725Y51275
X21725Y43655
T0
M30
